<svg width="90" height="90" xmlns="http://www.w3.org/2000/svg" node-id="1" sillyvg="true" template-height="90" template-width="90" version="1.1">
 <g>
  <title>Layer 1</title>
  <path d="m46.2,14.2l-1.5,-2.7l-2.4,-1.8l-1.4,-0.5l-34.7,0l-2.1,1.2l-1.2,2.1l-0.2,19.9l38.2,0l0,6.7l45.3,0l0,-17.4l-0.7,-2.4l-1.7,-1.7l-2.4,-0.7l-31.6,0l-2.2,-0.8l-1.4,-1.9z" fill="#57bf8d" fill-rule="nonzero" node-id="41" target-height="29.9" target-width="83.5" target-x="2.7" target-y="9.2" id="svg_1"/>
  <path d="m81.4,16.9l-31.6,0l-2.2,-0.8l-0.9,-0.9l-0.5,-1.2l-43.5,0l0,16.3l38.2,0l0,8.8l45.3,0l-0.2,-18.7l-0.5,-1.1l-1.7,-1.7l-2.4,-0.7z" fill="#57bf8d" fill-rule="nonzero" node-id="43" target-height="25.1" target-width="83.5" target-x="2.7" target-y="14" id="svg_2"/>
  <path d="m82.7,81l-75.2,0l-2.4,-0.7l-1.7,-1.6l-0.7,-2.4l-2.7,-47.4l0.1,-1.3l1.2,-2.2l1,-0.9l2.5,-0.7l80.4,0l2.5,0.7l1.8,1.9l0.5,2.5l-2.5,47.4l-0.2,1.2l-1.3,2.1l-2,1.2l-1.3,0.2z" fill="#77ffbf" fill-rule="nonzero" node-id="45" target-height="57.2" target-width="90" target-x="0" target-y="23.8" id="svg_3"/>
  <path d="m2.6,75l0.3,2.6l1.3,2l2,1.2l1.3,0.2l75.2,0l1.3,-0.2l2,-1.2l1.3,-2.1l0.2,-2.5l-84.9,0z" fill="#77ffbf" fill-rule="nonzero" node-id="47" target-height="6" target-width="84.9" target-x="2.6" target-y="75" id="svg_4"/>
  <path d="m89.9,31l0,-3.4l-0.4,-1.2l-1.8,-1.9l-2.5,-0.7l-80.4,0l-2.5,0.7l-1.8,1.9l-0.4,1.2l0,3.4l89.8,0z" fill="#63ce9a" fill-rule="nonzero" node-id="49" target-height="7.2" target-width="89.8" target-x="0.1" target-y="23.8" id="svg_5"/>
 </g>

</svg>