<?xml version="1.0" standalone="no"?><!DOCTYPE svg PUBLIC "-//W3C//DTD SVG 1.1//EN" "http://www.w3.org/Graphics/SVG/1.1/DTD/svg11.dtd"><svg height="90" node-id="1" sillyvg="true" template-height="90" template-width="90" version="1.1" viewBox="0 0 90 90" width="90" xmlns="http://www.w3.org/2000/svg" xmlns:xlink="http://www.w3.org/1999/xlink"><defs node-id="20"><linearGradient gradientUnits="objectBoundingBox" id="未命名的渐变_21" node-id="5" spreadMethod="pad" x1="44.44" x2="44.44" y1="39.13" y2="14"><stop offset="0" stop-color="#006ea6"></stop><stop offset="1" stop-color="#34b7ea"></stop></linearGradient><linearGradient gradientUnits="objectBoundingBox" id="未命名的渐变_10" node-id="8" spreadMethod="pad" x1="45.08" x2="45.08" y1="81" y2="75"><stop offset="0" stop-color="#36bbff"></stop><stop offset="1" stop-color="#77d1ff"></stop></linearGradient><linearGradient gradientUnits="objectBoundingBox" id="未命名的渐变_33" node-id="11" spreadMethod="pad" x1="45" x2="45" y1="31" y2="23.8"><stop offset="0" stop-color="#77d1ff"></stop><stop offset="1" stop-color="#3bbdff"></stop></linearGradient></defs><path d="M 46.20 14.20 L 44.70 11.50 L 42.30 9.70 L 40.90 9.20 L 6.20 9.20 L 4.10 10.40 L 2.90 12.50 L 2.70 32.40 L 40.90 32.40 L 40.90 39.10 L 86.20 39.10 L 86.20 21.70 L 85.50 19.30 L 83.80 17.60 L 81.40 16.90 L 49.80 16.90 L 47.60 16.10 L 46.20 14.20 Z" fill="#34b7ea" fill-rule="nonzero" node-id="41" stroke="none" target-height="29.899998" target-width="83.5" target-x="2.7" target-y="9.2"></path><path d="M 81.40 16.90 L 49.80 16.90 L 47.60 16.10 L 46.70 15.20 L 46.20 14.00 L 2.70 14.00 L 2.70 30.30 L 40.90 30.30 L 40.90 39.10 L 86.20 39.10 L 86.00 20.40 L 85.50 19.30 L 83.80 17.60 L 81.40 16.90 Z" fill="url(#未命名的渐变_21)" fill-rule="nonzero" node-id="43" stroke="none" target-height="25.099998" target-width="83.5" target-x="2.7" target-y="14"></path><path d="M 82.70 81.00 L 7.50 81.00 L 5.10 80.30 L 3.40 78.70 L 2.70 76.30 L 0.00 28.90 L 0.10 27.60 L 1.30 25.40 L 2.30 24.50 L 4.80 23.80 L 85.20 23.80 L 87.70 24.50 L 89.50 26.40 L 90.00 28.90 L 87.50 76.30 L 87.30 77.50 L 86.00 79.60 L 84.00 80.80 L 82.70 81.00 Z" fill="#77d1ff" fill-rule="nonzero" node-id="45" stroke="none" target-height="57.2" target-width="90" target-x="0" target-y="23.8"></path><path d="M 2.60 75.00 L 2.90 77.60 L 4.20 79.60 L 6.20 80.80 L 7.50 81.00 L 82.70 81.00 L 84.00 80.80 L 86.00 79.60 L 87.30 77.50 L 87.50 75.00 Z" fill="url(#未命名的渐变_10)" fill-rule="nonzero" node-id="47" stroke="none" target-height="6" target-width="84.9" target-x="2.6" target-y="75"></path><path d="M 89.90 31.00 L 89.90 27.60 L 89.50 26.40 L 87.70 24.50 L 85.20 23.80 L 4.80 23.80 L 2.30 24.50 L 0.50 26.40 L 0.10 27.60 L 0.10 31.00 Z" fill="url(#未命名的渐变_33)" fill-rule="nonzero" node-id="49" stroke="none" target-height="7.200001" target-width="89.8" target-x="0.1" target-y="23.8"></path></svg>